<?xml version="1.0" encoding="UTF-8" standalone="no"?>
<!-- Created with Inkscape (http://www.inkscape.org/) -->

<svg
   width="50"
   height="50"
   viewBox="0 0 13.229166 13.229167"
   version="1.1"
   id="svg1"
   xml:space="preserve"
   xmlns="http://www.w3.org/2000/svg"
   xmlns:svg="http://www.w3.org/2000/svg"><defs
     id="defs1" /><g
     id="layer1"><path
       d="M 4.6738013,2.5391384 C 4.6076524,2.5440847 3.0621757,2.6807106 2.0718181,3.4976687 1.5550683,3.9882362 0.52059938,6.8550008 0.52059938,9.3334003 c 0,0.044241 0.0115025,0.086513 0.0325967,0.1248546 C 1.2664835,10.744152 3.2136642,11.080385 3.6575519,11.09513 h 0.0077 c 0.078616,0 0.1524383,-0.03834 0.1984559,-0.103226 L 4.3123915,10.358783 C 3.1015283,10.038292 2.4831406,9.4936478 2.4476692,9.4612047 2.3460433,9.3697738 2.3364591,9.2105118 2.426575,9.1063024 2.5157383,9.0020939 2.6710513,8.9922621 2.7726753,9.083692 c 0.014378,0.013764 1.1533635,1.004737 3.3929323,1.004737 0.3573375,0 0.6834086,-0.02732 0.9846119,-0.0698 -0.1367124,-0.6380065 0.1235298,-1.3264896 0.6821331,-1.6698109 0.021354,-0.013165 0.043394,-0.024018 0.065193,-0.03588 -0.044637,0.00837 -0.089952,0.013764 -0.1366186,0.013764 -0.4745661,0 -0.8590181,-0.4502684 -0.8590181,-1.0067037 0,-0.5564344 0.384452,-1.0067027 0.8590181,-1.0067027 0.3604809,0 0.6682581,0.2604019 0.7957431,0.62919 0.052345,-0.7934859 0.6755533,-1.4240333 1.4337748,-1.4240333 0.7923231,0 1.4385691,0.688135 1.4385691,1.5316833 0,0.1786221 -0.03009,0.3528686 -0.08389,0.5126909 L 10.9602,7.4124112 c 0.03773,-0.1136693 0.05752,-0.2340761 0.05752,-0.3622752 0,-0.606807 -0.457317,-1.0941993 -1.0272749,-1.0941993 -0.5699579,0 -1.0277544,0.4873923 -1.0277544,1.0941993 0,0.382031 0.185634,0.7136589 0.4625854,0.9093753 L 9.5791534,8.0686366 8.99481,9.2242797 c 0.043169,0.048046 0.077995,0.1042494 0.1064187,0.1641798 0.2974862,-0.167373 0.4541135,-0.3012109 0.4582711,-0.3047637 0.101624,-0.090442 0.2559807,-0.081605 0.3461003,0.0236 0.08779,0.1026039 0.079525,0.2574741 -0.017736,0.3494947 h 0.9630399 c 0.0859,-0.2529796 0.312399,-0.437483 0.578112,-0.437483 0.142443,0 0.27233,0.054657 0.377259,0.1425501 0.144025,0.1206474 0.239202,0.3055171 0.239202,0.5136747 0,0.3598117 -0.2785,0.6562237 -0.616461,0.6562237 -0.123595,0 -0.238201,-0.04094 -0.334595,-0.109124 -0.11084,-0.07841 -0.197575,-0.193052 -0.243517,-0.3283582 H 9.9386764 c -0.063412,0.4444212 -0.2752057,0.8656022 -0.667753,1.1074712 -0.00677,0.0042 -0.013808,0.0073 -0.020613,0.01131 0.3408211,-0.07174 0.7709266,-0.198304 1.1912176,-0.398651 0.09422,-0.04492 0.187411,-0.0937 0.279468,-0.146483 0.183824,0.187473 0.431263,0.301323 0.70802,0.301323 0.569956,0 1.027275,-0.486903 1.027275,-1.0937079 0,-0.4736162 -0.279181,-0.8732694 -0.672546,-1.0263656 -0.110624,-0.043052 -0.229626,-0.067831 -0.354729,-0.067831 -0.187845,0 -0.362959,0.050386 -0.513877,0.1435337 l -0.17353,0.1096156 -0.102584,-0.177942 -0.565169,-0.957056 c -0.0281,0.00438 -0.05451,0.00685 -0.083412,0.00685 -0.3379613,0 -0.61694,-0.296414 -0.61694,-0.6562245 0,-0.3598115 0.2789787,-0.6567163 0.61694,-0.6567163 0.3379597,0 0.6164607,0.2969057 0.6164607,0.6567163 0,0.1709315 -0.06454,0.3272723 -0.167298,0.444365 l 0.468818,0.7997582 c 0.166171,-0.070932 0.331137,-0.1504157 0.520588,-0.1504157 0.107488,0 0.211683,0.013859 0.312544,0.037849 -0.237163,-2.1463134 -1.046339,-4.26996 -1.495612,-4.6948356 -0.9769354,-0.8061437 -2.5224092,-0.9428 -2.5885609,-0.9477159 -0.1025832,-0.00885 -0.2003742,0.050139 -0.242558,0.147466 -0.0038,0.0059 -0.037402,0.085533 -0.074785,0.2094024 C 7.9862176,3.0080629 8.7800526,3.2331985 9.498134,3.6903412 9.6131796,3.7630902 9.6486565,3.9184236 9.577708,4.0363953 9.530733,4.1140623 9.4511563,4.156334 9.3687059,4.156334 9.3246069,4.156334 9.2795419,4.14355 9.2392779,4.117991 8.0044468,3.332492 6.4628048,3.2931621 6.1656024,3.2931621 c -0.2972034,0 -1.8398045,0.039333 -3.0736765,0.8248285 C 2.976882,4.1917288 2.8253991,4.1553448 2.7544544,4.037375 2.682545,3.9184198 2.7180266,3.7640709 2.8330705,3.6903384 3.5511519,3.2341792 4.3449858,3.00806 4.9911633,2.8969695 4.9537708,2.7721167 4.9202186,2.6934664 4.917343,2.6865844 4.8741992,2.5892579 4.7773682,2.5283041 4.6738267,2.5391184 Z M 4.570259,6.3132912 c 0.4745651,0 0.859019,0.4502683 0.859019,1.0067027 0,0.5564354 -0.3844539,1.0067037 -0.859019,1.0067037 -0.4745661,0 -0.859019,-0.4502683 -0.859019,-1.0067037 0,-0.5564344 0.3844529,-1.0067027 0.859019,-1.0067027 z M 8.61129,7.4546803 c -0.036206,0.317315 -0.1979343,0.5871406 -0.4251951,0.7392971 0.042533,-0.011966 0.085246,-0.021726 0.1279899,-0.029497 l 0.064234,0.4306009 C 8.2611163,8.6164454 8.1471475,8.6573382 8.0379713,8.7248517 7.6265569,8.9776876 7.4406777,9.4838959 7.5547737,9.9498052 7.6972094,9.9203462 7.8339691,9.8880715 7.9612735,9.852477 7.9459862,9.7956609 7.9349104,9.7372306 7.9349104,9.6755176 c 0,-0.3598118 0.2789785,-0.6562248 0.61694,-0.6562248 0.028895,0 0.055321,0.00266 0.083409,0.00685 L 9.0652469,8.1782481 C 8.8576697,7.984359 8.6941003,7.7383642 8.61129,7.4546803 Z M 9.578645,9.6868285 C 9.4575732,9.7659035 9.3005515,9.8578647 9.1069514,9.9537422 9.0075254,10.175585 8.7961777,10.331747 8.5518489,10.331747 c -0.087959,0 -0.1717831,-0.02046 -0.2478306,-0.05653 -0.091558,0.02897 -0.1856573,0.05721 -0.2852216,0.08356 l 0.2670057,0.37653 c 0.2537691,0.07238 0.5332124,0.04171 0.7794445,-0.109616 0.3274287,-0.201374 0.5097758,-0.56507 0.5133981,-0.9388683 z"
       style="fill:#5865f2;stroke:none;stroke-width:0.273389"
       id="path16" /><path
       d="m 11.428986,9.4567806 c -0.115601,0 -0.205647,0.095669 -0.205647,0.2187418 0,0.1230682 0.09005,0.2187415 0.205647,0.2187415 0.01213,0 0.02351,-0.0019 0.03499,-0.0039 0.09546,-0.016856 0.166074,-0.1003066 0.169695,-0.2064528 9.6e-5,-0.00285 4.79e-4,-0.00552 4.79e-4,-0.00837 0,-0.1230676 -0.08957,-0.2187418 -0.205168,-0.2187418 z"
       style="fill:#5865f2;stroke:none;stroke-width:0.273389"
       id="path15" /><path
       d="m 9.9904174,6.8313897 c -0.1156033,0 -0.2056468,0.09567 -0.2056468,0.2187415 0,0.1230674 0.090044,0.2187416 0.2056468,0.2187416 0.1156026,0 0.2051676,-0.09567 0.2051676,-0.2187416 0,-0.1230692 -0.08957,-0.2187415 -0.2051676,-0.2187415 z"
       style="fill:#5865f2;stroke:none;stroke-width:0.273389"
       id="path14" /><g
       id="g11"
       transform="matrix(0.26458333,0,0,0.26458333,-5.4019196,5.7805251)"><path
         fill="url(#JO2QrRBSBZoFQQ5-PJDaKa)"
         d="M 14.938,53.378 C 10.849,51.622 9.006,49.255 9.006,46.001 V 26.17 l -2.332,-3.885 2.241,-2.688 4.599,1.84 7.492,-5.993 V 9.265 l 2.717,-0.777 3.676,5.513 h 9.212 l 3.676,-5.513 2.719,0.777 v 6.179 l 7.491,5.993 4.599,-1.84 2.241,2.688 -2.331,3.885 v 19.831 c 0,3.285 -1.879,5.637 -5.933,7.377 -4.199,1.803 -10.221,2.623 -17.067,2.623 -6.847,0 -12.869,-0.82 -17.068,-2.623 z M 25.002,32.999 c 0,-3.311 -2.688,-6.001 -6,-6.001 -3.311,0 -5.999,2.691 -5.999,6.001 0,3.312 2.688,6.001 5.999,6.001 3.312,10e-4 6,-2.689 6,-6.001 z m 25.996,0 c 0,-3.311 -2.688,-6.001 -5.999,-6.001 -3.312,0 -6,2.691 -6,6.001 0,3.312 2.688,6.001 6,6.001 3.311,10e-4 5.999,-2.689 5.999,-6.001 z"
         id="path2-3" /><path
         fill="url(#JO2QrRBSBZoFQQ5-PJDaKb)"
         d="M 5.003,46.001 V 27.278 l -3.224,-5.371 5.92,-7.104 5.133,2.053 4.171,-3.336 V 6.247 L 25.43,3.839 29.538,10 h 4.929 l 4.108,-6.161 8.428,2.408 v 7.273 l 4.169,3.336 5.133,-2.053 5.92,7.104 -3.223,5.371 v 18.723 c 0,10.764 -13.128,14 -27,14 -13.772,0 -26.999,-3.194 -26.999,-14 z m 52,0 v -1 H 51 v 5 H 37 v -5 h -9.997 v 5 h -14 v -5 h -6 v 1 c 0,8.617 10.873,12 25,12 14.224,0 25,-3.427 25,-12 z m -32,2 v -5 H 39 v 5 h 10 v -5 h 8.003 V 26.725 l 2.776,-4.629 -4.08,-4.896 -4.867,1.947 -5.829,-4.664 V 7.755 L 39.43,6.163 35.538,12 H 28.467 L 24.575,6.163 19.003,7.755 v 6.727 l -5.831,4.664 -4.867,-1.947 -4.08,4.896 2.777,4.629 V 43 h 8 v 5 h 10.001 z m 5.999,-9 v -8.015 h 2.001 v 8.015 z m -14.999,-5.5 c 0,-1.932 1.568,-3.501 3.5,-3.501 1.932,0 3.5,1.569 3.5,3.501 0,1.932 -1.568,3.501 -3.5,3.501 -1.932,0 -3.5,-1.569 -3.5,-3.501 z m 24.995,0 c 0,-1.932 1.568,-3.501 3.5,-3.501 1.932,0 3.5,1.569 3.5,3.501 0,1.932 -1.568,3.501 -3.5,3.501 -1.932,0 -3.5,-1.569 -3.5,-3.501 z"
         id="path4" /></g><path
       d="m 9.9902004,5.5183994 c -0.7923283,0 -1.4385522,0.6880037 -1.4385522,1.5315578 0,0.4580977 0.2127321,0.8469717 0.5137684,1.1281567 L 8.6351353,9.025938 c -0.028088,-0.00419 -0.054591,-0.00685 -0.083486,-0.00685 -0.3379632,0 -0.6165213,0.2965671 -0.6165213,0.6563808 0,0.3598142 0.2785581,0.6563832 0.6165213,0.6563832 0.3379632,0 0.6165223,-0.296569 0.6165223,-0.6563832 0,-0.1743514 -0.067429,-0.3333185 -0.1733971,-0.4512635 L 9.5791849,8.0687517 9.4250556,7.9593525 C 9.1481023,7.7636351 8.9626637,7.4320243 8.9626637,7.0499905 c 0,-0.6068108 0.4575757,-1.0939692 1.0275376,-1.0939692 0.5699617,0 1.0275357,0.4871584 1.0275357,1.0939692 0,0.1282 -0.02007,0.2487067 -0.0578,0.3623769 l 0.385326,0.1504214 c 0.05379,-0.1598232 0.08349,-0.3341753 0.08349,-0.5127983 0,-0.8435541 -0.646225,-1.5315568 -1.4385533,-1.5315568 z m 0,0.8751753 c -0.3379641,0 -0.6165222,0.2965681 -0.6165222,0.6563825 0,0.3598134 0.2785581,0.6563814 0.6165222,0.6563814 0.028905,0 0.055388,-0.00247 0.083486,-0.00685 l 0.565146,0.9572224 0.102752,0.1777707 0.173399,-0.1093992 c 0.150919,-0.093153 0.325922,-0.1435813 0.513767,-0.1435813 0.569962,0 1.027536,0.4871574 1.027536,1.0939704 0,0.6068104 -0.457574,1.0939684 -1.027536,1.0939684 -0.305853,0 -0.576383,-0.138454 -0.764231,-0.362377 l -0.308259,0.287172 c 0.263306,0.312807 0.64783,0.512798 1.072491,0.512798 0.792328,0 1.438553,-0.688004 1.438553,-1.5315586 0,-0.8435533 -0.646225,-1.5315561 -1.438553,-1.5315561 -0.189452,0 -0.354018,0.079484 -0.52019,0.1504186 L 10.439748,7.4943955 c 0.102752,-0.1170937 0.166973,-0.2734935 0.166973,-0.444426 0,-0.3598134 -0.278559,-0.6563824 -0.6165206,-0.6563824 z m 0,0.4375877 c 0.1155966,0 0.2055076,0.095726 0.2055076,0.2187948 0,0.1230711 -0.0899,0.2187928 -0.2055076,0.2187928 -0.1155987,0 -0.2055087,-0.095726 -0.2055087,-0.2187928 0,-0.1230711 0.089905,-0.2187948 0.2055087,-0.2187948 z m -1.6761706,1.333275 c -0.1645661,0.029906 -0.3291322,0.090594 -0.4816577,0.184609 -0.6855607,0.4213495 -0.9223758,1.362333 -0.5266132,2.0922166 0.3957625,0.729883 1.2788023,0.982009 1.9651645,0.56066 0.3925519,-0.241872 0.6044816,-0.663219 0.6678987,-1.1076458 h 0.9119399 c 0.0859,0.2529818 0.312275,0.4375898 0.577989,0.4375898 0.337965,0 0.616523,-0.296569 0.616523,-0.6563836 0,-0.3598128 -0.278558,-0.6563818 -0.616523,-0.6563818 -0.265714,0 -0.492093,0.1846071 -0.577989,0.4375886 H 9.579184 v 0.2187932 c 0,0.3777636 -0.1830285,0.7469776 -0.5137674,0.9503876 C 8.5717174,10.929276 7.943956,10.748088 7.6589741,10.22247 7.373994,9.6968505 7.5441796,9.0285025 8.0378789,8.725098 8.1470556,8.6575807 8.2610477,8.6165577 8.3782511,8.5951886 Z m 0.2376184,1.2922528 c 0.1155968,0 0.2055068,0.095726 0.2055068,0.2187932 0,0.123073 -0.089905,0.2187938 -0.2055068,0.2187938 -0.1155987,0 -0.2055077,-0.095726 -0.2055077,-0.2187938 0,-0.1230724 0.089905,-0.2187932 0.2055077,-0.2187932 z m 2.8771028,0 c 0.115599,0 0.205507,0.095726 0.205507,0.2187932 0,0.123073 -0.0899,0.2187938 -0.205507,0.2187938 -0.115597,0 -0.205506,-0.095726 -0.205506,-0.2187938 0,-0.1230724 0.0899,-0.2187932 0.205506,-0.2187932 z"
       id="path8"
       style="fill:#ffffff;fill-opacity:1;stroke:none;stroke-width:0.123789;stroke-dasharray:none;stroke-opacity:1" /><path
       d="m 8.5518489,9.4567806 c -0.115602,0 -0.2056467,0.095669 -0.2056467,0.2187418 0,0.017769 0.0022,0.0347 0.00575,0.051118 0.02107,0.097321 0.1009884,0.1676194 0.1998944,0.1676194 0.1156011,0 0.2051674,-0.095669 0.2051674,-0.2187415 0,-0.03705 -0.00894,-0.071037 -0.023488,-0.1012598 C 8.699757,9.5040775 8.6326438,9.4567765 8.5518474,9.4567765 Z"
       style="fill:#5865f2;fill-opacity:1;stroke:none;stroke-width:0.123789"
       id="path13" /></g></svg>
